<svg xmlns="http://www.w3.org/2000/svg" xmlns:xlink="http://www.w3.org/1999/xlink" width="500" zoomAndPan="magnify" viewBox="0 0 375 374.999991" height="500" preserveAspectRatio="xMidYMid meet" version="1.0"><defs><clipPath id="b2c697074e"><path d="M 52 60 L 328 60 L 328 319 L 52 319 Z M 52 60 " clip-rule="nonzero"/></clipPath><clipPath id="917a9cb0ad"><path d="M 55.0625 53.316406 L 331.003906 67.984375 L 317.328125 325.285156 L 41.382812 310.613281 Z M 55.0625 53.316406 " clip-rule="nonzero"/></clipPath><clipPath id="d4aef1f27f"><path d="M 146.480469 158.226562 C 121.046875 102.6875 101.859375 107.6875 98.832031 116.128906 C 91.6875 137.25 212.699219 255.5 204.699219 276.578125 C 200.765625 285.828125 173.859375 290.417969 169.75 286.761719 C 166.503906 283.148438 172.5625 266.265625 179.203125 254.578125 C 190.636719 233.683594 227.488281 203.816406 242.488281 180.53125 C 253.738281 163.066406 270.542969 138.15625 266.664062 130.210938 C 263.507812 124.882812 248.117188 123.203125 240.167969 127.082031 C 226.894531 134.117188 220.050781 181.917969 206.730469 189.8125 C 197.878906 194.503906 185.105469 192.101562 178.472656 187.449219 C 170.933594 183.609375 163.851562 171.191406 164.265625 163.472656 C 163.953125 153.132812 176.015625 136.574219 184.820312 132.738281 C 192.722656 129.71875 206.355469 132.164062 212.941406 137.675781 C 219.53125 143.1875 225.753906 155.558594 224.484375 163.234375 C 223.078125 173.480469 210.207031 189.136719 200.632812 191.207031 C 191.0625 193.28125 172.558594 185.414062 167.054688 175.660156 C 160.019531 162.386719 168.707031 128.441406 175.578125 112.464844 C 180.503906 100.6875 188.679688 92.519531 196.808594 85.210938 C 204.890625 78.757812 212.117188 72.261719 223.449219 69.425781 C 240.066406 64.289062 270.269531 62.453125 287.195312 67.652344 C 300.734375 71.8125 313.050781 82.789062 320.269531 92.632812 C 325.863281 100.671875 327.125 109.339844 327.386719 120.535156 C 327.332031 137.734375 322.488281 164.140625 311.914062 185.082031 C 298.585938 209.316406 263.8125 232.414062 247.097656 255.605469 C 233.183594 274.648438 230.730469 304.625 214.789062 313.238281 C 200.609375 321.085938 179.167969 319.945312 160.800781 309.507812 C 129.886719 292.382812 84.289062 211.6875 67.738281 183.285156 C 59.84375 169.960938 55.015625 163.683594 53.082031 151.539062 C 50.519531 135.0625 52.835938 107.660156 58.757812 93.355469 C 62.734375 83.246094 69.195312 74.988281 77.234375 69.394531 C 84.367188 64.613281 92.222656 62.449219 101.75 61.234375 C 116.46875 59.4375 142.199219 60.804688 154.789062 66.636719 C 164.898438 70.613281 170.628906 76.078125 176.085938 86.691406 C 186.414062 102.722656 201.964844 149.992188 195.1875 164.253906 C 191.253906 173.507812 177.210938 178.78125 168.636719 178.324219 C 160.960938 177.058594 146.480469 158.226562 146.480469 158.226562 " clip-rule="nonzero"/></clipPath></defs><g clip-path="url(#b2c697074e)"><g clip-path="url(#917a9cb0ad)"><g clip-path="url(#d4aef1f27f)"><path fill="#e7191f" d="M 25.707031 19.347656 L 366.285156 37.453125 L 349.367188 355.65625 L 8.789062 337.550781 Z M 25.707031 19.347656 " fill-opacity="1" fill-rule="nonzero"/></g></g></g></svg>